HIERARCHY
ROOT mixamorig:Hips
{
	OFFSET 0.000000 201.639420 0.000000
	CHANNELS 6 Xposition Yposition Zposition Xrotation Yrotation Zrotation
	JOINT mixamorig:Spine
	{
		OFFSET 0.006200 19.524994 -2.481800
		CHANNELS 3 Xrotation Yrotation Zrotation
		JOINT mixamorig:Spine1
		{
			OFFSET -0.000900 22.835007 -2.825400
			CHANNELS 3 Xrotation Yrotation Zrotation
			JOINT mixamorig:Spine2
			{
				OFFSET -0.020600 26.552490 -3.193300
				CHANNELS 3 Xrotation Yrotation Zrotation
				JOINT mixamorig:Neck
				{
					OFFSET -0.060000 30.701813 1.352200
					CHANNELS 3 Xrotation Yrotation Zrotation
					JOINT mixamorig:Head
					{
						OFFSET -0.087200 22.547607 3.670900
						CHANNELS 3 Xrotation Yrotation Zrotation
						JOINT mixamorig:HeadTop_End
						{
							OFFSET -0.830600 40.355194 7.893500
							CHANNELS 3 Xrotation Yrotation Zrotation
							End Site
							{
								OFFSET 0.000000 30.592346 0.000000
							}
						}
						JOINT mixamorig:RightEye
						{
							OFFSET -6.302100 18.118591 16.197100
							CHANNELS 3 Xrotation Yrotation Zrotation
							End Site
							{
								OFFSET 0.000000 30.592346 0.000000
							}
						}
						JOINT mixamorig:LeftEye
						{
							OFFSET 6.741500 18.382690 16.401899
							CHANNELS 3 Xrotation Yrotation Zrotation
							End Site
							{
								OFFSET 0.000000 30.592346 0.000000
							}
						}
					}
				}
				JOINT mixamorig:LeftShoulder
				{
					OFFSET 11.924900 18.230499 1.425400
					CHANNELS 3 Xrotation Yrotation Zrotation
					JOINT mixamorig:LeftArm
					{
						OFFSET 25.435989 -0.697632 -5.229300
						CHANNELS 3 Xrotation Yrotation Zrotation
						JOINT mixamorig:LeftForeArm
						{
							OFFSET 54.684776 0.000000 0.000000
							CHANNELS 3 Xrotation Yrotation Zrotation
							JOINT mixamorig:LeftHand
							{
								OFFSET 55.098175 0.000000 0.000000
								CHANNELS 3 Xrotation Yrotation Zrotation
								JOINT mixamorig:LeftHandMiddle1
								{
									OFFSET 23.369751 0.000000 0.000000
									CHANNELS 3 Xrotation Yrotation Zrotation
									JOINT mixamorig:LeftHandMiddle2
									{
										OFFSET 6.378677 0.000000 0.000000
										CHANNELS 3 Xrotation Yrotation Zrotation
										JOINT mixamorig:LeftHandMiddle3
										{
											OFFSET 6.148331 0.000000 0.000000
											CHANNELS 3 Xrotation Yrotation Zrotation
											JOINT mixamorig:LeftHandMiddle4
											{
												OFFSET 6.582504 0.000000 0.000000
												CHANNELS 3 Xrotation Yrotation Zrotation
												End Site
												{
													OFFSET -1.168900 6.395691 1.028606
												}
											}
										}
									}
								}
								JOINT mixamorig:LeftHandThumb1
								{
									OFFSET 7.235672 -3.848206 5.434273
									CHANNELS 3 Xrotation Yrotation Zrotation
									JOINT mixamorig:LeftHandThumb2
									{
										OFFSET 6.568451 -3.792297 3.792300
										CHANNELS 3 Xrotation Yrotation Zrotation
										JOINT mixamorig:LeftHandThumb3
										{
											OFFSET 6.063080 -3.500519 3.500518
											CHANNELS 3 Xrotation Yrotation Zrotation
											JOINT mixamorig:LeftHandThumb4
											{
												OFFSET 4.793182 -2.767334 2.767349
												CHANNELS 3 Xrotation Yrotation Zrotation
												End Site
												{
													OFFSET 0.101639 6.054260 1.275483
												}
											}
										}
									}
								}
								JOINT mixamorig:LeftHandIndex1
								{
									OFFSET 23.101074 -0.309540 4.992809
									CHANNELS 3 Xrotation Yrotation Zrotation
									JOINT mixamorig:LeftHandIndex2
									{
										OFFSET 6.226883 0.000000 0.000000
										CHANNELS 3 Xrotation Yrotation Zrotation
										JOINT mixamorig:LeftHandIndex3
										{
											OFFSET 6.094330 0.000000 0.000000
											CHANNELS 3 Xrotation Yrotation Zrotation
											JOINT mixamorig:LeftHandIndex4
											{
												OFFSET 5.482605 0.000000 0.000000
												CHANNELS 3 Xrotation Yrotation Zrotation
												End Site
												{
													OFFSET -1.427902 5.233032 0.797164
												}
											}
										}
									}
								}
								JOINT mixamorig:LeftHandRing1
								{
									OFFSET 22.299240 0.021149 -3.964172
									CHANNELS 3 Xrotation Yrotation Zrotation
									JOINT mixamorig:LeftHandRing2
									{
										OFFSET 6.321869 0.000000 0.000000
										CHANNELS 3 Xrotation Yrotation Zrotation
										JOINT mixamorig:LeftHandRing3
										{
											OFFSET 5.899796 0.000000 0.000000
											CHANNELS 3 Xrotation Yrotation Zrotation
											JOINT mixamorig:LeftHandRing4
											{
												OFFSET 6.517899 0.000000 0.000000
												CHANNELS 3 Xrotation Yrotation Zrotation
												End Site
												{
													OFFSET -1.637299 6.232208 0.980890
												}
											}
										}
									}
								}
								JOINT mixamorig:LeftHandPinky1
								{
									OFFSET 20.463791 -0.302338 -8.562233
									CHANNELS 3 Xrotation Yrotation Zrotation
									JOINT mixamorig:LeftHandPinky2
									{
										OFFSET 6.908646 0.000000 0.000000
										CHANNELS 3 Xrotation Yrotation Zrotation
										JOINT mixamorig:LeftHandPinky3
										{
											OFFSET 4.622849 0.000000 0.000000
											CHANNELS 3 Xrotation Yrotation Zrotation
											JOINT mixamorig:LeftHandPinky4
											{
												OFFSET 5.216080 0.000000 0.000000
												CHANNELS 3 Xrotation Yrotation Zrotation
												End Site
												{
													OFFSET -0.606308 5.116241 0.814926
												}
											}
										}
									}
								}
							}
						}
					}
				}
				JOINT mixamorig:RightShoulder
				{
					OFFSET -12.001300 18.284088 1.348900
					CHANNELS 3 Xrotation Yrotation Zrotation
					JOINT mixamorig:RightArm
					{
						OFFSET -25.308500 -0.751312 -5.164599
						CHANNELS 3 Xrotation Yrotation Zrotation
						JOINT mixamorig:RightForeArm
						{
							OFFSET -54.684429 0.000000 0.000000
							CHANNELS 3 Xrotation Yrotation Zrotation
							JOINT mixamorig:RightHand
							{
								OFFSET -55.150291 0.000000 0.000000
								CHANNELS 3 Xrotation Yrotation Zrotation
								JOINT mixamorig:RightHandMiddle1
								{
									OFFSET -23.317566 0.000000 0.000000
									CHANNELS 3 Xrotation Yrotation Zrotation
									JOINT mixamorig:RightHandMiddle2
									{
										OFFSET -6.378403 0.000000 0.000000
										CHANNELS 3 Xrotation Yrotation Zrotation
										JOINT mixamorig:RightHandMiddle3
										{
											OFFSET -6.148193 0.000000 0.000000
											CHANNELS 3 Xrotation Yrotation Zrotation
											JOINT mixamorig:RightHandMiddle4
											{
												OFFSET -6.583389 0.000000 0.000000
												CHANNELS 3 Xrotation Yrotation Zrotation
												End Site
												{
													OFFSET 1.171692 6.395905 1.029786
												}
											}
										}
									}
								}
								JOINT mixamorig:RightHandThumb1
								{
									OFFSET -7.190521 -3.860474 5.435846
									CHANNELS 3 Xrotation Yrotation Zrotation
									JOINT mixamorig:RightHandThumb2
									{
										OFFSET -6.567429 -3.791718 3.791708
										CHANNELS 3 Xrotation Yrotation Zrotation
										JOINT mixamorig:RightHandThumb3
										{
											OFFSET -6.062469 -3.500153 3.500166
											CHANNELS 3 Xrotation Yrotation Zrotation
											JOINT mixamorig:RightHandThumb4
											{
												OFFSET -4.792618 -2.767029 2.767022
												CHANNELS 3 Xrotation Yrotation Zrotation
												End Site
												{
													OFFSET -0.100327 6.053253 1.276754
												}
											}
										}
									}
								}
								JOINT mixamorig:RightHandIndex1
								{
									OFFSET -23.048981 -0.310791 4.992554
									CHANNELS 3 Xrotation Yrotation Zrotation
									JOINT mixamorig:RightHandIndex2
									{
										OFFSET -6.227539 0.000000 0.000000
										CHANNELS 3 Xrotation Yrotation Zrotation
										JOINT mixamorig:RightHandIndex3
										{
											OFFSET -6.095047 0.000000 0.000000
											CHANNELS 3 Xrotation Yrotation Zrotation
											JOINT mixamorig:RightHandIndex4
											{
												OFFSET -5.484772 0.000000 0.000000
												CHANNELS 3 Xrotation Yrotation Zrotation
												End Site
												{
													OFFSET 1.420593 5.237305 0.797056
												}
											}
										}
									}
								}
								JOINT mixamorig:RightHandRing1
								{
									OFFSET -22.246323 0.020569 -3.963762
									CHANNELS 3 Xrotation Yrotation Zrotation
									JOINT mixamorig:RightHandRing2
									{
										OFFSET -6.322128 0.000000 0.000000
										CHANNELS 3 Xrotation Yrotation Zrotation
										JOINT mixamorig:RightHandRing3
										{
											OFFSET -5.900024 0.000000 0.000000
											CHANNELS 3 Xrotation Yrotation Zrotation
											JOINT mixamorig:RightHandRing4
											{
												OFFSET -6.518356 0.000000 0.000000
												CHANNELS 3 Xrotation Yrotation Zrotation
												End Site
												{
													OFFSET 1.636398 6.232697 0.982186
												}
											}
										}
									}
								}
								JOINT mixamorig:RightHandPinky1
								{
									OFFSET -20.411011 -0.303314 -8.561701
									CHANNELS 3 Xrotation Yrotation Zrotation
									JOINT mixamorig:RightHandPinky2
									{
										OFFSET -6.907349 0.000000 0.000000
										CHANNELS 3 Xrotation Yrotation Zrotation
										JOINT mixamorig:RightHandPinky3
										{
											OFFSET -4.623840 0.000000 0.000000
											CHANNELS 3 Xrotation Yrotation Zrotation
											JOINT mixamorig:RightHandPinky4
											{
												OFFSET -5.218353 0.000000 0.000000
												CHANNELS 3 Xrotation Yrotation Zrotation
												End Site
												{
													OFFSET 0.602097 5.118835 0.816273
												}
											}
										}
									}
								}
							}
						}
					}
				}
			}
		}
	}
	JOINT mixamorig:LeftUpLeg
	{
		OFFSET 18.168400 -13.561905 -0.039000
		CHANNELS 3 Xrotation Yrotation Zrotation
		JOINT mixamorig:LeftLeg
		{
			OFFSET 0.577358 -80.825211 -3.695000
			CHANNELS 3 Xrotation Yrotation Zrotation
			JOINT mixamorig:LeftFoot
			{
				OFFSET -0.577356 -83.370262 -6.520700
				CHANNELS 3 Xrotation Yrotation Zrotation
				JOINT mixamorig:LeftToeBase
				{
					OFFSET 0.750401 -20.798306 25.135401
					CHANNELS 3 Xrotation Yrotation Zrotation
					JOINT mixamorig:LeftToe_End
					{
						OFFSET -0.000500 0.001200 19.917799
						CHANNELS 3 Xrotation Yrotation Zrotation
						End Site
						{
							OFFSET 0.000000 19.917805 0.000000
						}
					}
				}
			}
		}
	}
	JOINT mixamorig:RightUpLeg
	{
		OFFSET -18.162500 -13.585098 -0.041000
		CHANNELS 3 Xrotation Yrotation Zrotation
		JOINT mixamorig:RightLeg
		{
			OFFSET -0.595024 -80.945297 -3.631900
			CHANNELS 3 Xrotation Yrotation Zrotation
			JOINT mixamorig:RightFoot
			{
				OFFSET 0.595024 -83.218193 -6.561200
				CHANNELS 3 Xrotation Yrotation Zrotation
				JOINT mixamorig:RightToeBase
				{
					OFFSET -0.753601 -20.807106 25.115000
					CHANNELS 3 Xrotation Yrotation Zrotation
					JOINT mixamorig:RightToe_End
					{
						OFFSET 0.000299 0.001700 19.918200
						CHANNELS 3 Xrotation Yrotation Zrotation
						End Site
						{
							OFFSET 0.000000 19.918203 0.000000
						}
					}
				}
			}
		}
	}
}
MOTION
Frames: 4
Frame Time: 0.033333
-0.026044 177.586777 -1.347754 -0.252381 -0.002716 -1.134226 16.586536 0.271247 0.418734 20.119548 0.469924 0.900892 12.592109 0.364861 0.929188 2.981574 -0.915418 0.127352 -21.725471 3.041513 -1.451454 -0.000002 -0.000000 0.000000 -0.000002 -0.000000 0.000000 -0.000002 -0.000000 0.000000 20.445942 -17.628657 8.705111 -33.570178 -17.336514 -36.862244 -2.640508 -52.136210 -20.395452 -54.784152 -19.506896 -15.020209 0.647370 9.443186 -24.544010 0.393112 2.026188 -21.957663 0.393122 2.026198 -21.957658 -0.000000 0.000000 0.000000 36.774534 8.584272 -16.863124 2.295230 23.044198 15.130520 0.424766 18.444395 14.528079 0.000001 -0.000000 0.000003 0.653809 9.453273 -24.543947 0.394094 2.028600 -21.957462 0.526587 0.717012 -27.283783 0.000004 0.000001 0.000001 0.654191 9.452925 -24.542299 0.387472 2.028296 -21.955757 0.387432 2.028298 -21.955754 -0.000001 0.000000 -0.000001 0.643622 9.449191 -24.541305 0.384722 2.021082 -21.956394 0.384727 2.021082 -21.956389 -0.000001 0.000001 -0.000000 18.311314 13.497419 -7.979094 -29.297181 10.275815 43.682540 -39.182453 60.008799 40.506150 -15.081121 -0.977418 14.319041 -3.492534 -2.447892 34.024516 0.778400 -2.790416 31.036994 0.777672 -2.796179 31.036513 -0.000002 -0.000003 -0.000001 40.077183 0.946271 20.754076 5.156684 -21.099653 -19.109286 4.783094 -12.461263 -21.501934 -0.000002 -0.000000 0.000003 18.327814 0.099138 38.977957 -3.924277 9.265841 32.256258 -5.627783 12.216094 12.775231 0.000002 -0.000002 0.000000 -12.757996 -10.091622 31.800985 -8.974632 -8.729462 30.664148 -8.961825 -8.751760 30.658376 -0.000001 0.000001 0.000000 -16.765420 -2.967970 36.666341 0.750504 -2.749763 30.591434 1.344315 -3.570205 41.053788 0.000000 0.000001 -0.000002 -38.872826 1.221105 25.869598 50.537587 -4.751532 -8.542570 -11.454563 -8.313332 -8.851880 -3.786279 -12.885247 -1.581998 0.000000 0.000000 0.000000 -42.073491 -11.490033 -22.258060 51.133644 5.617606 -2.809491 -10.535558 3.561656 11.900343 -8.607272 9.213505 9.978690 -0.000001 -0.000001 0.000002 
-2.513576 177.195572 -1.623089 -0.248399 0.872286 -1.106168 16.616185 0.820489 0.458509 20.156665 0.785484 0.784936 12.622029 0.709252 0.851951 3.140562 -0.337920 0.581488 -21.718998 4.386399 -1.723489 0.000001 -0.000000 -0.000000 0.000001 -0.000000 -0.000000 0.000001 -0.000000 -0.000000 20.428616 -18.186864 8.237785 -33.136844 -20.313923 -35.000806 -2.609981 -52.027019 -20.364200 -56.090777 -21.566835 -14.011623 0.662457 9.444875 -24.628200 0.396050 2.033447 -22.040532 0.396038 2.033455 -22.040518 -0.000001 -0.000000 -0.000001 36.821557 8.641969 -16.832494 2.300072 23.124247 15.150055 0.425245 18.524499 14.550104 0.000002 0.000001 -0.000001 0.672742 9.482989 -24.622345 0.413754 2.028883 -22.038792 0.545873 0.716457 -27.364600 0.000001 -0.000000 -0.000001 0.655410 9.441207 -24.624594 0.384307 2.020524 -22.038283 0.384289 2.020526 -22.038292 -0.000000 -0.000001 -0.000000 0.657474 9.430385 -24.623366 0.387644 2.028354 -22.039251 0.387647 2.028353 -22.039241 0.000001 -0.000001 0.000000 18.348139 13.487592 -8.127153 -29.466123 9.222043 43.960494 -37.120114 59.116961 38.339156 -15.234850 -1.500145 14.055303 -3.494168 -2.450957 34.043712 0.779349 -2.791996 31.056498 0.778610 -2.797763 31.056051 0.000001 -0.000001 -0.000002 40.087046 0.930214 20.752714 5.161821 -21.117114 -19.110489 4.789472 -12.479288 -21.500548 0.000000 0.000000 -0.000001 18.325331 0.103416 38.996910 -3.927163 9.262927 32.274184 -5.631611 12.212645 12.793329 0.000002 -0.000002 0.000000 -12.757181 -10.097748 31.819710 -8.971733 -8.734326 30.683324 -8.958902 -8.756618 30.677545 -0.000002 -0.000003 0.000001 -16.766936 -2.975361 36.684314 0.751432 -2.751352 30.610958 1.345533 -3.571584 41.073346 -0.000002 0.000001 -0.000003 -38.786599 0.306030 26.608928 49.733746 -4.995083 -9.253525 -10.729840 -8.555791 -9.241259 -3.676238 -12.886723 -1.582125 0.000000 -0.000000 0.000000 -42.829849 -12.237500 -22.491227 52.710475 5.475627 -2.402236 -11.441121 3.669083 10.796366 -8.585589 9.208194 9.952655 -0.000000 -0.000001 0.000001 
-5.461285 176.984467 -1.445819 -0.244671 1.786198 -1.075818 16.653357 1.518317 0.519894 20.205638 1.188082 0.649147 12.662116 1.144509 0.753710 3.327954 0.362212 1.131283 -21.688190 6.021390 -2.057074 0.000001 0.000000 -0.000000 0.000001 0.000000 -0.000000 0.000001 0.000000 -0.000000 20.379329 -18.765875 7.683784 -32.321958 -24.043880 -32.692021 -2.567606 -51.712646 -20.308183 -57.469430 -24.292949 -13.050008 0.704407 9.449367 -24.862621 0.404278 2.053633 -22.271174 0.404264 2.053637 -22.271167 -0.000000 -0.000001 0.000000 36.952239 8.802750 -16.747448 2.310610 23.346355 15.210024 0.426380 18.747488 14.611453 0.000001 0.000001 -0.000000 0.725832 9.566637 -24.840454 0.469778 2.028833 -22.265283 0.602242 0.713513 -27.589714 -0.000002 -0.000000 -0.000001 0.663996 9.406164 -24.854555 0.371294 2.000616 -22.267918 0.371251 2.000632 -22.267909 -0.000007 -0.000001 -0.000000 0.695873 9.377935 -24.851799 0.395848 2.048568 -22.269902 0.395856 2.048576 -22.269897 0.000005 -0.000000 0.000000 18.339695 13.502702 -8.090280 -29.904003 8.221765 43.717985 -34.248034 57.682874 35.318153 -15.476259 -2.207479 13.893313 -3.498843 -2.459810 34.099013 0.782083 -2.796543 31.112792 0.781362 -2.802311 31.112324 -0.000002 -0.000003 -0.000001 40.121996 0.886976 20.742530 5.177186 -21.170501 -19.117594 4.807251 -12.532560 -21.501278 0.000000 -0.000000 0.000000 18.318205 0.115728 39.051480 -3.935978 9.254043 32.328894 -5.643281 12.202113 12.848558 -0.000001 -0.000000 0.000001 -12.754752 -10.115372 31.873651 -8.963335 -8.748327 30.738594 -8.950488 -8.770609 30.732829 -0.000001 -0.000000 0.000001 -16.771280 -2.996666 36.736138 0.754136 -2.755926 30.667218 1.349048 -3.575581 41.129695 0.000003 0.000000 -0.000001 -38.337063 -0.374187 27.758614 48.341883 -5.442233 -10.235100 -10.074861 -8.841138 -9.832416 -3.555604 -12.888400 -1.582298 0.000000 0.000001 0.000000 -43.478973 -13.512683 -22.424944 54.248306 5.801383 -2.625999 -12.543650 3.290003 9.668351 -8.560420 9.202122 9.922658 -0.000001 -0.000000 0.000001 
-8.808287 177.039230 -0.859318 -0.241184 2.736806 -1.044470 16.694661 2.237373 0.591099 20.261386 1.604711 0.516150 12.709100 1.592537 0.651724 3.530107 1.146483 1.747334 -21.626867 7.857175 -2.435462 -0.000000 0.000000 -0.000000 -0.000000 0.000000 -0.000000 -0.000000 0.000000 -0.000000 20.273540 -19.130428 7.119540 -31.239848 -27.692543 -30.571623 -2.512635 -51.135027 -20.235842 -58.298465 -26.922632 -12.564488 0.766222 9.451402 -25.220067 0.416976 2.084332 -22.622773 0.416953 2.084340 -22.622766 -0.000003 -0.000001 0.000001 37.151130 9.048175 -16.618434 2.326227 23.684943 15.301562 0.427611 19.087387 14.705148 0.000000 -0.000003 0.000001 0.802839 9.697176 -25.172070 0.555053 2.027963 -22.610546 0.687958 0.708204 -27.932866 -0.000001 0.000001 -0.000001 0.676799 9.352689 -25.205034 0.346388 1.972448 -22.617734 0.346312 1.972498 -22.617722 0.000000 -0.000001 -0.000000 0.753991 9.297678 -25.199853 0.408511 2.079329 -22.621482 0.408525 2.079333 -22.621476 -0.000001 -0.000000 0.000000 18.298512 13.548662 -7.916622 -30.668171 7.631710 42.754710 -31.047595 55.762853 31.945065 -15.718936 -2.813919 14.066407 -3.506271 -2.473920 34.187084 0.786467 -2.803784 31.202421 0.785751 -2.809549 31.201964 0.000001 -0.000000 -0.000000 40.177608 0.818129 20.726385 5.192768 -21.257654 -19.128011 4.825918 -12.620053 -21.506167 -0.000001 0.000001 -0.000001 18.306766 0.135328 39.138439 -3.950126 9.239734 32.417078 -5.662099 12.185102 12.937599 0.000001 -0.000001 0.000000 -12.750869 -10.143448 31.959592 -8.949925 -8.770607 30.826635 -8.937039 -8.792875 30.820891 -0.000002 -0.000001 0.000001 -16.778168 -3.030600 36.818664 0.758458 -2.763207 30.756864 1.354654 -3.581930 41.219481 0.000001 0.000001 0.000000 -37.385040 -1.094119 29.116557 46.389275 -5.612289 -11.513293 -9.422533 -9.197934 -10.751899 -3.426920 -12.890233 -1.582510 -0.000000 -0.000000 0.000000 -43.926357 -15.298165 -22.223603 55.640186 8.582448 -3.028589 -13.691493 0.662262 7.747490 -8.532357 9.195429 9.889322 -0.000001 0.000000 0.000000 
